<svg width="325" height="123" viewBox="0 0 325 123" fill="none" xmlns="http://www.w3.org/2000/svg">
<g clip-path="url(#clip0_923_11011)">
<path d="M76.2116 34.5464V64.8981L45.1268 88.2341V57.8973L76.2116 34.5464Z" fill="white"/>
<path d="M121.118 31.166V122.072H0.219971V121.967L32.3967 97.8082H96.825V49.416L121.118 31.181V31.166Z" fill="url(#paint0_linear_923_11011)"/>
<path d="M0.219971 0.918457V91.6147L24.4984 73.3797V25.1969H88.6873L120.999 0.918457H0.219971Z" fill="white"/>
<path d="M203.961 47.3514H190.528L177.633 60.5602V28.189L166.28 33.4994V93.7392H177.633V73.3202L182.226 68.7726L195.255 93.7392H207.596L190.528 60.6948L203.961 47.3514Z" fill="white"/>
<path d="M262.421 39.6475C260.252 36.4612 257.41 33.9032 253.879 31.9735C250.349 30.0438 246.041 29.0864 240.97 29.0864C235.899 29.0864 231.575 30.0438 228.03 31.9735C224.485 33.9032 221.643 36.4462 219.474 39.6475C217.305 42.8487 215.734 46.379 214.732 50.2534C213.729 54.1277 213.236 58.032 213.236 61.9662C213.236 65.9004 213.729 69.8047 214.732 73.6791C215.734 77.5535 217.305 81.0838 219.474 84.285C221.643 87.4862 224.485 90.0293 228.03 91.959C231.575 93.8737 235.884 94.846 240.97 94.846C246.056 94.846 250.364 93.8887 253.879 91.959C257.41 90.0442 260.252 87.4862 262.421 84.285C264.59 81.0988 266.161 77.5535 267.148 73.6791C268.135 69.8047 268.629 65.9004 268.629 61.9662C268.629 58.032 268.135 54.1277 267.148 50.2534C266.161 46.379 264.59 42.8487 262.421 39.6475ZM226.235 54.5915C226.759 52.0634 227.626 49.7148 228.823 47.5608C230.02 45.3917 231.605 43.6415 233.595 42.3102C235.584 40.9788 238.038 40.3057 240.97 40.3057C243.902 40.3057 246.325 40.9489 248.3 42.2354C248.898 42.6243 249.436 43.0581 249.96 43.5069L227.267 73.1256C226.833 71.9887 226.489 70.792 226.235 69.5355C225.711 66.9924 225.442 64.4644 225.442 61.9513C225.442 59.4382 225.711 57.1046 226.235 54.5765V54.5915ZM255.629 69.2961C255.091 71.8242 254.208 74.1578 252.997 76.3119C251.785 78.466 250.184 80.2012 248.21 81.5326C246.22 82.8639 243.812 83.5221 240.97 83.5221C238.127 83.5221 235.659 82.8938 233.685 81.6223C232.952 81.1436 232.279 80.6051 231.65 80.0068L254.448 50.2534C254.956 51.5398 255.36 52.8861 255.659 54.3222C256.183 56.8802 256.452 59.4232 256.452 61.9662C256.452 64.3298 256.183 66.7681 255.629 69.2961Z" fill="white"/>
<path d="M322.81 67.3365C321.568 65.0478 319.923 63.133 317.889 61.5923C315.839 60.0515 313.58 58.7351 311.082 57.673C308.584 56.596 306.086 55.6386 303.573 54.7859C301.329 53.9931 299.324 53.2302 297.559 52.4673C295.794 51.7044 294.388 50.8517 293.341 49.9093C292.294 48.9519 291.77 47.8001 291.77 46.4388C291.77 44.4343 292.548 42.8936 294.089 41.8015C295.63 40.7095 297.799 40.171 300.581 40.171C303.543 40.171 305.906 40.8143 307.642 42.1007C309.377 43.3872 310.678 44.9878 311.516 46.8876L322.047 43.3872C321.314 40.6647 320.013 38.2264 318.143 36.0723C316.273 33.9182 313.894 32.2278 311.037 30.9713C308.18 29.7147 304.904 29.0864 301.209 29.0864C296.692 29.0864 292.862 29.8643 289.706 31.42C286.549 32.9758 284.126 35.0551 282.466 37.6579C280.805 40.2608 279.968 43.1179 279.968 46.2444C279.968 49.3708 280.566 51.9886 281.763 54.1427C282.959 56.2968 284.545 58.0619 286.505 59.483C288.479 60.8892 290.633 62.0709 292.997 63.0433C295.36 64.0156 297.709 64.8832 300.028 65.6761C302.451 66.4988 304.62 67.3365 306.535 68.1892C308.449 69.0568 309.99 70.074 311.127 71.2707C312.264 72.4674 312.832 73.9633 312.832 75.7434C312.832 78.3463 311.875 80.3358 309.945 81.6971C308.016 83.0584 305.443 83.7465 302.212 83.7465C299.16 83.7465 296.407 82.819 293.969 80.9492C291.531 79.0942 289.631 76.7008 288.27 73.7988L277.604 77.7479C278.756 81.2334 280.491 84.2401 282.795 86.7981C285.113 89.3561 287.881 91.3307 291.127 92.7219C294.358 94.1131 297.963 94.8161 301.927 94.8161C306.221 94.8161 310.08 94.0682 313.506 92.5723C316.931 91.0764 319.639 88.9073 321.658 86.0651C323.663 83.2229 324.68 79.7674 324.68 75.7135C324.68 72.4226 324.067 69.6252 322.825 67.3365H322.81Z" fill="white"/>
</g>
<defs>
<linearGradient id="paint0_linear_923_11011" x1="60.6692" y1="19.6925" x2="60.6692" y2="163.463" gradientUnits="userSpaceOnUse">
<stop stop-color="#1DA7FD"/>
<stop offset="1" stop-color="#08F5DA"/>
</linearGradient>
<clipPath id="clip0_923_11011">
<rect width="324.46" height="121.153" fill="white" transform="translate(0.219971 0.918457)"/>
</clipPath>
</defs>
</svg>
