<svg width="325" height="123" viewBox="0 0 325 123" fill="none" xmlns="http://www.w3.org/2000/svg">
<g clip-path="url(#clip0_923_11005)">
<path d="M75.9916 34.6279V64.9797L44.9069 88.3157V57.9789L75.9916 34.6279Z" fill="black"/>
<path d="M120.898 31.2476V122.153H0V122.048L32.1767 97.8897H96.605V49.4975L120.898 31.2625V31.2476Z" fill="url(#paint0_linear_923_11005)"/>
<path d="M0 1V91.6962L24.2784 73.4612V25.2784H88.4673L120.779 1H0Z" fill="black"/>
<path d="M203.741 46.9544H190.308L177.413 60.1632V27.792L166.06 33.1024V93.3422H177.413V72.9232L182.006 68.3757L195.035 93.3422H207.376L190.308 60.2978L203.741 46.9544Z" fill="black"/>
<path d="M262.201 39.25C260.032 36.0637 257.19 33.5058 253.659 31.576C250.129 29.6463 245.821 28.689 240.75 28.689C235.679 28.689 231.355 29.6463 227.81 31.576C224.265 33.5058 221.423 36.0488 219.254 39.25C217.085 42.4512 215.514 45.9815 214.512 49.8559C213.509 53.7303 213.016 57.6346 213.016 61.5688C213.016 65.503 213.509 69.4073 214.512 73.2816C215.514 77.156 217.085 80.6863 219.254 83.8876C221.423 87.0888 224.265 89.6318 227.81 91.5615C231.355 93.4763 235.664 94.4486 240.75 94.4486C245.836 94.4486 250.144 93.4912 253.659 91.5615C257.19 89.6468 260.032 87.0888 262.201 83.8876C264.37 80.7013 265.941 77.156 266.928 73.2816C267.915 69.4073 268.409 65.503 268.409 61.5688C268.409 57.6346 267.915 53.7303 266.928 49.8559C265.941 45.9815 264.37 42.4512 262.201 39.25ZM226.015 54.194C226.539 51.6659 227.406 49.3174 228.603 47.1633C229.8 44.9942 231.385 43.244 233.375 41.9127C235.364 40.5813 237.818 39.9082 240.75 39.9082C243.682 39.9082 246.105 40.5514 248.08 41.8379C248.678 42.2268 249.216 42.6606 249.74 43.1094L227.047 72.7282C226.613 71.5913 226.269 70.3946 226.015 69.138C225.492 66.595 225.222 64.0669 225.222 61.5538C225.222 59.0407 225.492 56.7071 226.015 54.179V54.194ZM255.409 68.8987C254.871 71.4267 253.988 73.7603 252.777 75.9144C251.565 78.0685 249.964 79.8038 247.99 81.1351C246 82.4665 243.592 83.1246 240.75 83.1246C237.907 83.1246 235.439 82.4964 233.465 81.2249C232.732 80.7462 232.059 80.2077 231.43 79.6093L254.228 49.8559C254.736 51.1424 255.14 52.4887 255.439 53.9247C255.963 56.4827 256.232 59.0258 256.232 61.5688C256.232 63.9323 255.963 66.3706 255.409 68.8987Z" fill="black"/>
<path d="M322.59 66.9542C321.349 64.6655 319.703 62.7507 317.669 61.2099C315.619 59.6692 313.36 58.3528 310.862 57.2907C308.364 56.2136 305.866 55.2563 303.353 54.4036C301.109 53.6108 299.105 52.8479 297.339 52.085C295.574 51.3221 294.168 50.4694 293.121 49.527C292.074 48.5696 291.55 47.4178 291.55 46.0565C291.55 44.052 292.328 42.5112 293.869 41.4192C295.41 40.3272 297.579 39.7887 300.361 39.7887C303.323 39.7887 305.687 40.4319 307.422 41.7184C309.157 43.0049 310.458 44.6055 311.296 46.5053L321.827 43.0049C321.094 40.2823 319.793 37.844 317.923 35.6899C316.053 33.5358 313.675 31.8455 310.817 30.5889C307.96 29.3324 304.684 28.7041 300.989 28.7041C296.472 28.7041 292.642 29.482 289.486 31.0377C286.33 32.5934 283.906 34.6727 282.246 37.2756C280.585 39.8784 279.748 42.7356 279.748 45.862C279.748 48.9885 280.346 51.6063 281.543 53.7604C282.739 55.9145 284.325 57.6796 286.285 59.1007C288.259 60.5069 290.413 61.6886 292.777 62.661C295.14 63.6333 297.489 64.5009 299.808 65.2937C302.231 66.1165 304.4 66.9542 306.315 67.8068C308.23 68.6745 309.77 69.6917 310.907 70.8884C312.044 72.0851 312.613 73.581 312.613 75.3611C312.613 77.964 311.655 79.9535 309.725 81.3148C307.796 82.6761 305.223 83.3642 301.992 83.3642C298.94 83.3642 296.188 82.4367 293.749 80.5668C291.311 78.7119 289.411 76.3185 288.05 73.4165L277.384 77.3656C278.536 80.8511 280.271 83.8578 282.575 86.4158C284.894 88.9738 287.661 90.9484 290.907 92.3395C294.138 93.7307 297.743 94.4338 301.707 94.4338C306.001 94.4338 309.86 93.6859 313.286 92.19C316.711 90.6941 319.419 88.525 321.438 85.6828C323.443 82.8406 324.46 79.3851 324.46 75.3312C324.46 72.0402 323.847 69.2429 322.605 66.9542H322.59Z" fill="black"/>
</g>
<defs>
<linearGradient id="paint0_linear_923_11005" x1="60.4492" y1="19.774" x2="60.4492" y2="163.545" gradientUnits="userSpaceOnUse">
<stop stop-color="#1DA7FD"/>
<stop offset="1" stop-color="#08F5DA"/>
</linearGradient>
<clipPath id="clip0_923_11005">
<rect width="324.46" height="121.153" fill="white" transform="translate(0 1)"/>
</clipPath>
</defs>
</svg>
